<?xml version="1.0" encoding="utf-8"?>
<!-- Generator: Adobe Illustrator 15.1.0, SVG Export Plug-In . SVG Version: 6.00 Build 0)  -->
<!DOCTYPE svg PUBLIC "-//W3C//DTD SVG 1.1//EN" "http://www.w3.org/Graphics/SVG/1.1/DTD/svg11.dtd">
<svg version="1.1" id="Layer_1" xmlns="http://www.w3.org/2000/svg" xmlns:xlink="http://www.w3.org/1999/xlink" x="0px" y="0px"
	 width="1000px" height="1080px" viewBox="0 0 1000 1080" enable-background="new 0 0 1000 1080" xml:space="preserve">
<rect x="61.149" y="136.672" fill="none" width="5.97" height="4.478"/>
<rect x="183.537" y="45.627" fill="none" width="59.702" height="13.433"/>
<g>
	<path d="M38.867,63.613c-4.089,1.693-8.373,2.539-12.852,2.539c-7.214,0-12.754-2.154-16.621-6.465
		c-3.867-4.31-5.801-10.684-5.801-19.121c0-4.088,0.533-7.786,1.602-11.094c1.067-3.307,2.591-6.113,4.57-8.418
		c1.979-2.305,4.375-4.082,7.188-5.332s5.963-1.875,9.453-1.875c2.369,0,4.57,0.202,6.602,0.605
		c2.031,0.404,3.984,1.022,5.859,1.855v6.836c-1.85-1.016-3.764-1.79-5.742-2.324c-1.979-0.533-4.141-0.801-6.484-0.801
		c-2.396,0-4.564,0.449-6.504,1.348c-1.94,0.898-3.588,2.201-4.941,3.906c-1.354,1.706-2.396,3.789-3.125,6.25
		c-0.729,2.461-1.094,5.268-1.094,8.418c0,6.615,1.341,11.602,4.023,14.961c2.682,3.359,6.614,5.039,11.797,5.039
		c2.188,0,4.283-0.254,6.289-0.762c2.005-0.508,3.932-1.217,5.781-2.129V63.613z"/>
	<path d="M81.758,65.527h-6.797V40.488c0-3.021-0.566-5.279-1.699-6.777c-1.133-1.497-2.754-2.246-4.863-2.246
		c-0.912,0-1.765,0.124-2.559,0.371c-0.795,0.248-1.621,0.678-2.48,1.289c-0.859,0.612-1.797,1.439-2.812,2.48
		c-1.016,1.042-2.188,2.344-3.516,3.906v26.016h-6.797V10.332h6.797v15.977l-0.234,6.172c1.067-1.275,2.115-2.35,3.145-3.223
		c1.028-0.872,2.057-1.582,3.086-2.129c1.028-0.547,2.076-0.938,3.145-1.172c1.067-0.234,2.174-0.352,3.32-0.352
		c3.906,0,6.927,1.191,9.062,3.574c2.135,2.383,3.203,5.971,3.203,10.762V65.527z"/>
	<path d="M119.414,65.527l-0.156-5.273c-2.136,2.109-4.304,3.633-6.504,4.57c-2.201,0.938-4.512,1.406-6.934,1.406
		c-2.24,0-4.154-0.287-5.742-0.859c-1.589-0.572-2.897-1.36-3.926-2.363c-1.029-1.002-1.784-2.181-2.266-3.535
		c-0.482-1.354-0.723-2.825-0.723-4.414c0-3.932,1.465-7.012,4.395-9.238s7.259-3.34,12.988-3.34h8.125v-3.438
		c0-2.317-0.742-4.173-2.227-5.566c-1.484-1.393-3.75-2.09-6.797-2.09c-2.214,0-4.395,0.248-6.543,0.742
		c-2.148,0.495-4.369,1.198-6.66,2.109v-6.133c0.859-0.312,1.816-0.618,2.871-0.918c1.055-0.299,2.168-0.566,3.34-0.801
		s2.396-0.423,3.672-0.566c1.275-0.143,2.564-0.215,3.867-0.215c2.369,0,4.505,0.261,6.406,0.781c1.9,0.521,3.509,1.315,4.824,2.383
		c1.314,1.068,2.324,2.409,3.027,4.023c0.703,1.615,1.055,3.516,1.055,5.703v27.031H119.414z M118.672,47.676h-8.633
		c-1.693,0-3.151,0.17-4.375,0.508c-1.225,0.339-2.227,0.82-3.008,1.445s-1.361,1.374-1.738,2.246
		c-0.378,0.873-0.566,1.855-0.566,2.949c0,0.756,0.117,1.479,0.352,2.168c0.234,0.69,0.611,1.303,1.133,1.836
		c0.521,0.534,1.197,0.957,2.031,1.27c0.833,0.312,1.849,0.469,3.047,0.469c1.562,0,3.353-0.475,5.371-1.426
		c2.018-0.95,4.146-2.454,6.387-4.512V47.676z"/>
	<path d="M139.805,26.309h6.211l0.195,7.227c2.317-2.786,4.603-4.805,6.855-6.055c2.252-1.25,4.524-1.875,6.816-1.875
		c4.062,0,7.142,1.315,9.238,3.945c2.096,2.631,3.066,6.537,2.91,11.719h-6.875c0.078-3.438-0.424-5.931-1.504-7.48
		c-1.081-1.549-2.663-2.324-4.746-2.324c-0.912,0-1.83,0.163-2.754,0.488c-0.925,0.326-1.875,0.847-2.852,1.562
		c-0.977,0.717-2.012,1.635-3.105,2.754c-1.094,1.12-2.266,2.475-3.516,4.062v25.195h-6.875V26.309z"/>
	<path d="M195.547,15.918h-11.602v-5.586h18.477v49.531h11.68v5.664h-31.445v-5.664h12.891V15.918z"/>
	<path d="M259.297,43.848c0,0.964-0.014,1.771-0.039,2.422c-0.026,0.651-0.065,1.264-0.117,1.836h-27.539
		c0,4.011,1.119,7.09,3.359,9.238c2.239,2.148,5.469,3.223,9.688,3.223c1.146,0,2.291-0.045,3.438-0.137
		c1.146-0.091,2.252-0.215,3.32-0.371c1.067-0.156,2.09-0.332,3.066-0.527s1.881-0.41,2.715-0.645v5.586
		c-1.85,0.521-3.939,0.944-6.27,1.27c-2.331,0.325-4.746,0.488-7.246,0.488c-3.359,0-6.25-0.456-8.672-1.367
		s-4.408-2.232-5.957-3.965c-1.55-1.731-2.695-3.854-3.438-6.367c-0.742-2.513-1.113-5.357-1.113-8.535
		c0-2.76,0.396-5.371,1.191-7.832c0.794-2.461,1.953-4.622,3.477-6.484c1.523-1.861,3.392-3.34,5.605-4.434
		c2.213-1.094,4.727-1.641,7.539-1.641c2.734,0,5.156,0.43,7.266,1.289s3.887,2.077,5.332,3.652c1.445,1.576,2.539,3.49,3.281,5.742
		C258.926,38.542,259.297,41.062,259.297,43.848z M252.227,42.871c0.078-1.744-0.092-3.34-0.508-4.785
		c-0.417-1.445-1.062-2.688-1.934-3.73c-0.873-1.041-1.96-1.855-3.262-2.441c-1.303-0.586-2.812-0.879-4.531-0.879
		c-1.484,0-2.839,0.287-4.062,0.859c-1.225,0.573-2.279,1.381-3.164,2.422c-0.886,1.042-1.602,2.292-2.148,3.75
		c-0.547,1.459-0.886,3.061-1.016,4.805H252.227z"/>
	<path d="M301.211,54.824c0,1.381-0.234,2.617-0.703,3.711s-1.107,2.064-1.914,2.91c-0.808,0.847-1.745,1.569-2.812,2.168
		c-1.068,0.6-2.207,1.094-3.418,1.484s-2.455,0.677-3.73,0.859c-1.276,0.182-2.526,0.273-3.75,0.273
		c-2.656,0-5.098-0.117-7.324-0.352s-4.408-0.611-6.543-1.133v-6.25c2.291,0.651,4.57,1.146,6.836,1.484
		c2.266,0.339,4.518,0.508,6.758,0.508c3.255,0,5.664-0.442,7.227-1.328c1.562-0.885,2.344-2.148,2.344-3.789
		c0-0.703-0.124-1.334-0.371-1.895c-0.248-0.56-0.697-1.094-1.348-1.602c-0.651-0.508-1.66-1.035-3.027-1.582
		s-3.236-1.172-5.605-1.875c-1.771-0.521-3.405-1.113-4.902-1.777c-1.498-0.664-2.793-1.451-3.887-2.363
		c-1.094-0.911-1.953-1.979-2.578-3.203c-0.625-1.224-0.938-2.669-0.938-4.336c0-1.094,0.254-2.291,0.762-3.594
		c0.508-1.302,1.373-2.513,2.598-3.633c1.224-1.119,2.877-2.051,4.961-2.793c2.083-0.742,4.688-1.113,7.812-1.113
		c1.536,0,3.242,0.085,5.117,0.254c1.875,0.17,3.828,0.463,5.859,0.879v6.055c-2.136-0.521-4.16-0.904-6.074-1.152
		c-1.914-0.247-3.574-0.371-4.98-0.371c-1.693,0-3.119,0.131-4.277,0.391c-1.159,0.261-2.097,0.619-2.812,1.074
		c-0.717,0.456-1.23,0.99-1.543,1.602c-0.312,0.612-0.469,1.27-0.469,1.973s0.137,1.342,0.41,1.914
		c0.273,0.573,0.781,1.127,1.523,1.66c0.742,0.534,1.777,1.068,3.105,1.602c1.328,0.534,3.06,1.113,5.195,1.738
		c2.317,0.678,4.271,1.387,5.859,2.129c1.588,0.742,2.877,1.569,3.867,2.48c0.989,0.912,1.699,1.94,2.129,3.086
		C300.996,52.064,301.211,53.366,301.211,54.824z"/>
	<path d="M391.562,50.254c0,2.448-0.476,4.616-1.426,6.504c-0.951,1.889-2.305,3.483-4.062,4.785
		c-1.758,1.303-3.881,2.292-6.367,2.969c-2.487,0.678-5.254,1.016-8.301,1.016h-13.359V14.473h14.609
		c11.38,0,17.07,4.141,17.07,12.422c0,2.761-0.658,5.131-1.973,7.109c-1.315,1.979-3.457,3.451-6.426,4.414
		c1.38,0.261,2.688,0.703,3.926,1.328c1.236,0.625,2.324,1.433,3.262,2.422c0.938,0.99,1.68,2.162,2.227,3.516
		C391.289,47.038,391.562,48.562,391.562,50.254z M382.5,27.832c0-1.041-0.156-2.024-0.469-2.949
		c-0.312-0.924-0.859-1.719-1.641-2.383s-1.836-1.191-3.164-1.582s-3.008-0.586-5.039-0.586H365v15.977h6.953
		c1.588,0,3.027-0.169,4.316-0.508c1.289-0.338,2.396-0.859,3.32-1.562c0.924-0.703,1.641-1.582,2.148-2.637
		S382.5,29.291,382.5,27.832z M384.18,50.488c0-1.302-0.273-2.474-0.82-3.516c-0.547-1.041-1.342-1.92-2.383-2.637
		c-1.042-0.716-2.312-1.27-3.809-1.66c-1.498-0.391-3.184-0.586-5.059-0.586H365v17.578h7.344c3.984,0,6.953-0.742,8.906-2.227
		S384.18,53.64,384.18,50.488z"/>
	<path d="M433.633,65.527h-6.094l-0.234-6.328c-1.172,1.354-2.285,2.48-3.34,3.379s-2.104,1.621-3.145,2.168
		c-1.042,0.547-2.09,0.931-3.145,1.152c-1.055,0.221-2.168,0.332-3.34,0.332c-4.037,0-7.084-1.185-9.141-3.555
		c-2.058-2.369-3.086-5.95-3.086-10.742V26.309h6.797v25.078c0,6.016,2.266,9.023,6.797,9.023c0.833,0,1.646-0.123,2.441-0.371
		c0.794-0.247,1.627-0.677,2.5-1.289c0.872-0.611,1.81-1.438,2.812-2.48c1.002-1.041,2.129-2.356,3.379-3.945V26.309h6.797V65.527z"
		/>
	<path d="M481.368,65.527h-9.336L453.75,44.512v21.016h-6.797V10.332h6.797v33.906l17.618-17.93h8.984l-18.399,18.086
		L481.368,65.527z"/>
	<path d="M524.219,45.605c0,3.047-0.43,5.84-1.289,8.379s-2.096,4.714-3.711,6.523c-1.615,1.811-3.58,3.217-5.898,4.219
		s-4.947,1.504-7.891,1.504c-2.812,0-5.332-0.437-7.558-1.309s-4.115-2.154-5.664-3.848c-1.55-1.692-2.734-3.789-3.555-6.289
		s-1.23-5.377-1.23-8.633c0-3.047,0.43-5.826,1.289-8.34c0.859-2.513,2.096-4.674,3.711-6.484c1.614-1.81,3.58-3.216,5.898-4.219
		c2.317-1.002,4.947-1.504,7.89-1.504c2.812,0,5.332,0.437,7.559,1.309c2.227,0.873,4.115,2.148,5.664,3.828s2.734,3.77,3.555,6.27
		S524.219,42.377,524.219,45.605z M517.266,45.918c0-2.422-0.268-4.537-0.801-6.348c-0.533-1.81-1.295-3.32-2.285-4.531
		s-2.193-2.122-3.613-2.734c-1.42-0.611-3.002-0.918-4.746-0.918c-2.031,0-3.77,0.397-5.214,1.191
		c-1.445,0.795-2.631,1.855-3.555,3.184c-0.925,1.328-1.602,2.871-2.031,4.629s-0.645,3.601-0.645,5.527
		c0,2.422,0.267,4.545,0.801,6.367c0.533,1.823,1.295,3.34,2.285,4.551c0.989,1.211,2.188,2.123,3.593,2.734
		c1.406,0.612,2.994,0.918,4.766,0.918c2.031,0,3.77-0.396,5.215-1.191c1.445-0.794,2.631-1.855,3.555-3.184
		s1.602-2.871,2.031-4.629S517.266,47.871,517.266,45.918z"/>
	<path d="M570.391,26.309l-5.703,39.219h-8.242l-5.664-16.406l-1.133-3.984l-1.289,4.219l-5.43,16.172h-8.008l-5.664-39.219h6.641
		l3.281,26.641l0.703,5.938l1.68-5.195l5.703-17.617h4.883l6.133,17.383l1.758,5.195l0.586-5.508l3.047-26.836H570.391z"/>
	<path d="M609.102,54.824c0,1.381-0.234,2.617-0.703,3.711s-1.107,2.064-1.914,2.91c-0.807,0.847-1.744,1.569-2.812,2.168
		c-1.068,0.6-2.207,1.094-3.418,1.484s-2.455,0.677-3.73,0.859c-1.275,0.182-2.525,0.273-3.75,0.273
		c-2.656,0-5.098-0.117-7.324-0.352s-4.408-0.611-6.543-1.133v-6.25c2.291,0.651,4.57,1.146,6.836,1.484
		c2.266,0.339,4.518,0.508,6.758,0.508c3.256,0,5.664-0.442,7.227-1.328c1.562-0.885,2.344-2.148,2.344-3.789
		c0-0.703-0.123-1.334-0.371-1.895c-0.248-0.56-0.697-1.094-1.348-1.602s-1.66-1.035-3.027-1.582s-3.236-1.172-5.605-1.875
		c-1.771-0.521-3.404-1.113-4.902-1.777s-2.793-1.451-3.887-2.363c-1.094-0.911-1.953-1.979-2.578-3.203
		c-0.625-1.224-0.938-2.669-0.938-4.336c0-1.094,0.254-2.291,0.762-3.594c0.508-1.302,1.373-2.513,2.598-3.633
		c1.225-1.119,2.877-2.051,4.961-2.793s4.688-1.113,7.812-1.113c1.537,0,3.242,0.085,5.117,0.254
		c1.875,0.17,3.828,0.463,5.859,0.879v6.055c-2.135-0.521-4.16-0.904-6.074-1.152c-1.914-0.247-3.574-0.371-4.98-0.371
		c-1.693,0-3.119,0.131-4.277,0.391c-1.158,0.261-2.096,0.619-2.812,1.074c-0.717,0.456-1.23,0.99-1.543,1.602
		c-0.312,0.612-0.469,1.27-0.469,1.973s0.137,1.342,0.41,1.914c0.273,0.573,0.781,1.127,1.523,1.66
		c0.742,0.534,1.777,1.068,3.105,1.602c1.328,0.534,3.061,1.113,5.195,1.738c2.318,0.678,4.271,1.387,5.859,2.129
		s2.877,1.569,3.867,2.48c0.99,0.912,1.699,1.94,2.129,3.086C608.887,52.064,609.102,53.366,609.102,54.824z"/>
	<path d="M657.305,65.527h-9.336l-18.281-21.016v21.016h-6.797V10.332h6.797v33.906l17.617-17.93h8.984l-18.398,18.086
		L657.305,65.527z"/>
	<path d="M679.375,31.934h-11.602v-5.625h18.477v33.555h11.68v5.664h-31.445v-5.664h12.891V31.934z M681.758,9.863
		c0.756,0,1.459,0.137,2.109,0.41s1.217,0.658,1.699,1.152c0.482,0.495,0.859,1.062,1.133,1.699c0.273,0.639,0.41,1.335,0.41,2.09
		c0,0.729-0.137,1.42-0.41,2.07c-0.273,0.651-0.65,1.225-1.133,1.719c-0.482,0.495-1.049,0.879-1.699,1.152s-1.354,0.41-2.109,0.41
		s-1.459-0.137-2.109-0.41s-1.217-0.657-1.699-1.152c-0.482-0.494-0.859-1.067-1.133-1.719c-0.273-0.65-0.41-1.341-0.41-2.07
		c0-0.755,0.137-1.451,0.41-2.09c0.273-0.638,0.65-1.204,1.133-1.699c0.482-0.494,1.049-0.879,1.699-1.152
		S681.002,9.863,681.758,9.863z"/>
</g>
</svg>
