<?xml version="1.0" encoding="utf-8"?>
<!-- Generator: Adobe Illustrator 15.1.0, SVG Export Plug-In . SVG Version: 6.00 Build 0)  -->
<!DOCTYPE svg PUBLIC "-//W3C//DTD SVG 1.1//EN" "http://www.w3.org/Graphics/SVG/1.1/DTD/svg11.dtd">
<svg version="1.1" id="Layer_1" xmlns="http://www.w3.org/2000/svg" xmlns:xlink="http://www.w3.org/1999/xlink" x="0px" y="0px"
	 width="1000px" height="1080px" viewBox="0 0 1000 1080" enable-background="new 0 0 1000 1080" xml:space="preserve">
<rect x="61.149" y="136.672" fill="none" width="5.97" height="4.478"/>
<g>
	<path d="M38.867,63.613c-4.089,1.693-8.373,2.539-12.852,2.539c-7.214,0-12.754-2.154-16.621-6.465
		c-3.867-4.31-5.801-10.684-5.801-19.121c0-4.088,0.533-7.786,1.602-11.094c1.067-3.307,2.591-6.113,4.57-8.418
		c1.979-2.305,4.375-4.082,7.188-5.332s5.963-1.875,9.453-1.875c2.369,0,4.57,0.202,6.602,0.605
		c2.031,0.404,3.984,1.022,5.859,1.855v6.836c-1.85-1.016-3.764-1.79-5.742-2.324c-1.979-0.533-4.141-0.801-6.484-0.801
		c-2.396,0-4.564,0.449-6.504,1.348c-1.94,0.898-3.588,2.201-4.941,3.906c-1.354,1.706-2.396,3.789-3.125,6.25
		c-0.729,2.461-1.094,5.268-1.094,8.418c0,6.615,1.341,11.602,4.023,14.961c2.682,3.359,6.614,5.039,11.797,5.039
		c2.188,0,4.283-0.254,6.289-0.762c2.005-0.508,3.932-1.217,5.781-2.129V63.613z"/>
	<path d="M83.672,65.527h-6.953V42.09H55.273v23.438H48.32V14.473h6.953v21.602h21.445V14.473h6.953V65.527z"/>
	<path d="M131.562,65.527h-7.578l-3.555-11.133H99.18l-3.594,11.133h-7.227l16.953-51.055h9.531L131.562,65.527z M118.438,48.184
		l-8.633-27.305l-8.633,27.305H118.438z"/>
	<path d="M173.008,65.527h-7.852l-7.617-16.328c-0.573-1.25-1.159-2.285-1.758-3.105c-0.6-0.82-1.244-1.471-1.934-1.953
		c-0.69-0.481-1.445-0.826-2.266-1.035c-0.82-0.208-1.738-0.312-2.754-0.312h-3.281v22.734h-6.953V14.473h13.672
		c2.969,0,5.521,0.326,7.656,0.977c2.135,0.651,3.887,1.562,5.254,2.734s2.369,2.585,3.008,4.238
		c0.638,1.654,0.957,3.483,0.957,5.488c0,1.589-0.234,3.093-0.703,4.512c-0.469,1.42-1.166,2.709-2.09,3.867
		c-0.925,1.159-2.07,2.162-3.438,3.008c-1.367,0.847-2.937,1.479-4.707,1.895c1.432,0.495,2.649,1.361,3.652,2.598
		c1.002,1.237,2.024,2.885,3.066,4.941L173.008,65.527z M161.875,28.496c0-2.734-0.854-4.778-2.559-6.133
		c-1.706-1.354-4.108-2.031-7.207-2.031h-6.562v16.875h5.625c1.641,0,3.118-0.188,4.434-0.566c1.314-0.377,2.435-0.938,3.359-1.68
		c0.924-0.742,1.641-1.653,2.148-2.734C161.621,31.146,161.875,29.902,161.875,28.496z"/>
	<path d="M214.414,65.527h-29.375V14.473h7.07V59.59h22.305V65.527z"/>
	<path d="M256.797,65.527h-29.023V14.473h29.023v5.859h-22.07v15.82h21.211v5.859h-21.211V59.59h22.07V65.527z"/>
	<path d="M302.852,51.699c0,2.422-0.495,4.545-1.484,6.367c-0.99,1.823-2.37,3.34-4.141,4.551c-1.771,1.211-3.9,2.116-6.387,2.715
		c-2.487,0.599-5.229,0.898-8.223,0.898c-1.354,0-2.702-0.053-4.043-0.156c-1.342-0.104-2.631-0.234-3.867-0.391
		c-1.237-0.156-2.402-0.338-3.496-0.547c-1.094-0.208-2.084-0.43-2.969-0.664v-6.719c1.953,0.729,4.146,1.303,6.582,1.719
		c2.435,0.417,5.201,0.625,8.301,0.625c2.239,0,4.146-0.176,5.723-0.527c1.575-0.352,2.864-0.872,3.867-1.562
		c1.002-0.689,1.731-1.529,2.188-2.52c0.455-0.989,0.684-2.122,0.684-3.398c0-1.38-0.385-2.559-1.152-3.535
		c-0.769-0.977-1.777-1.849-3.027-2.617c-1.25-0.768-2.676-1.471-4.277-2.109c-1.602-0.638-3.236-1.295-4.902-1.973
		c-1.667-0.677-3.301-1.412-4.902-2.207c-1.602-0.794-3.027-1.731-4.277-2.812c-1.25-1.08-2.26-2.35-3.027-3.809
		c-0.769-1.458-1.152-3.189-1.152-5.195c0-1.744,0.364-3.463,1.094-5.156c0.729-1.692,1.861-3.196,3.398-4.512
		c1.536-1.314,3.509-2.376,5.918-3.184c2.408-0.807,5.279-1.211,8.613-1.211c0.859,0,1.79,0.039,2.793,0.117
		c1.002,0.078,2.018,0.189,3.047,0.332c1.028,0.144,2.044,0.307,3.047,0.488c1.002,0.183,1.934,0.378,2.793,0.586v6.25
		c-2.006-0.572-4.011-1.009-6.016-1.309c-2.006-0.299-3.945-0.449-5.82-0.449c-3.984,0-6.914,0.664-8.789,1.992
		s-2.812,3.112-2.812,5.352c0,1.381,0.384,2.565,1.152,3.555c0.768,0.99,1.777,1.875,3.027,2.656s2.676,1.491,4.277,2.129
		c1.602,0.639,3.235,1.296,4.902,1.973c1.666,0.678,3.301,1.42,4.902,2.227c1.602,0.808,3.027,1.765,4.277,2.871
		c1.25,1.107,2.259,2.402,3.027,3.887C302.467,47.91,302.852,49.668,302.852,51.699z"/>
	<path d="M391.562,50.254c0,2.448-0.476,4.616-1.426,6.504c-0.951,1.889-2.305,3.483-4.062,4.785
		c-1.758,1.303-3.881,2.292-6.367,2.969c-2.487,0.678-5.254,1.016-8.301,1.016h-13.359V14.473h14.609
		c11.38,0,17.07,4.141,17.07,12.422c0,2.761-0.658,5.131-1.973,7.109c-1.315,1.979-3.457,3.451-6.426,4.414
		c1.38,0.261,2.688,0.703,3.926,1.328c1.236,0.625,2.324,1.433,3.262,2.422c0.938,0.99,1.68,2.162,2.227,3.516
		C391.289,47.038,391.562,48.562,391.562,50.254z M382.5,27.832c0-1.041-0.156-2.024-0.469-2.949
		c-0.312-0.924-0.859-1.719-1.641-2.383s-1.836-1.191-3.164-1.582s-3.008-0.586-5.039-0.586H365v15.977h6.953
		c1.588,0,3.027-0.169,4.316-0.508c1.289-0.338,2.396-0.859,3.32-1.562c0.924-0.703,1.641-1.582,2.148-2.637
		S382.5,29.291,382.5,27.832z M384.18,50.488c0-1.302-0.273-2.474-0.82-3.516c-0.547-1.041-1.342-1.92-2.383-2.637
		c-1.042-0.716-2.312-1.27-3.809-1.66c-1.498-0.391-3.184-0.586-5.059-0.586H365v17.578h7.344c3.984,0,6.953-0.742,8.906-2.227
		S384.18,53.64,384.18,50.488z"/>
	<path d="M435.625,47.754c0,2.812-0.397,5.358-1.191,7.637c-0.795,2.279-1.96,4.219-3.496,5.82
		c-1.537,1.602-3.418,2.839-5.645,3.711s-4.785,1.309-7.676,1.309c-3.178,0-5.873-0.417-8.086-1.25
		c-2.214-0.833-4.018-2.012-5.41-3.535c-1.394-1.523-2.409-3.353-3.047-5.488c-0.639-2.135-0.957-4.518-0.957-7.148V14.473h6.953
		v33.789c0,2.006,0.188,3.764,0.566,5.273c0.377,1.511,0.996,2.773,1.855,3.789s1.973,1.784,3.34,2.305
		c1.367,0.521,3.04,0.781,5.02,0.781c3.697,0,6.426-1.067,8.184-3.203c1.758-2.135,2.637-5.143,2.637-9.023V14.473h6.953V47.754z"/>
	<path d="M480.743,65.527h-8.75l-19.102-25.039v25.039h-6.953V14.473h6.953v23.711l18.711-23.711h8.242L459.688,38.73
		L480.743,65.527z"/>
	<path d="M525.664,39.668c0,4.584-0.541,8.542-1.621,11.875c-1.08,3.334-2.539,6.088-4.375,8.262
		c-1.836,2.175-3.984,3.789-6.445,4.844s-5.059,1.582-7.793,1.582c-3.281,0-6.139-0.593-8.574-1.777
		c-2.436-1.185-4.453-2.896-6.055-5.137c-1.602-2.239-2.793-4.967-3.574-8.184c-0.781-3.216-1.172-6.842-1.172-10.879
		c0-4.531,0.533-8.463,1.602-11.797c1.067-3.333,2.52-6.087,4.355-8.262c1.836-2.174,3.978-3.789,6.426-4.844
		c2.447-1.055,5.039-1.582,7.773-1.582c3.281,0,6.139,0.6,8.574,1.797c2.436,1.198,4.459,2.91,6.074,5.137s2.818,4.941,3.613,8.145
		S525.664,35.658,525.664,39.668z M518.438,40.176c0-2.994-0.229-5.735-0.684-8.223c-0.455-2.486-1.191-4.629-2.207-6.426
		s-2.324-3.189-3.926-4.18c-1.602-0.989-3.535-1.484-5.801-1.484c-2.188,0-4.068,0.527-5.644,1.582
		c-1.576,1.055-2.871,2.487-3.887,4.297c-1.016,1.811-1.771,3.933-2.266,6.367c-0.495,2.436-0.742,5.02-0.742,7.754
		c0,3.021,0.234,5.775,0.703,8.262c0.469,2.487,1.204,4.623,2.207,6.406c1.002,1.784,2.298,3.171,3.887,4.16
		c1.587,0.99,3.501,1.484,5.742,1.484c2.188,0,4.076-0.527,5.664-1.582s2.896-2.486,3.926-4.297c1.029-1.81,1.791-3.926,2.285-6.348
		S518.438,42.937,518.438,40.176z"/>
	<path d="M570.039,14.473l-3.438,51.055h-9.023l-6.328-18.164l-1.758-5.82l-1.836,6.289l-5.859,17.695h-8.711l-3.516-51.055h6.562
		l1.992,34.727l0.586,9.531l2.461-8.086l6.172-18.945h4.805l7.109,20.312l2.383,6.719l0.156-7.031l2.031-37.227H570.039z"/>
	<path d="M610.742,51.699c0,2.422-0.494,4.545-1.484,6.367c-0.99,1.823-2.369,3.34-4.141,4.551s-3.9,2.116-6.387,2.715
		s-5.229,0.898-8.223,0.898c-1.354,0-2.701-0.053-4.043-0.156c-1.342-0.104-2.631-0.234-3.867-0.391s-2.402-0.338-3.496-0.547
		c-1.094-0.208-2.084-0.43-2.969-0.664v-6.719c1.953,0.729,4.146,1.303,6.582,1.719c2.436,0.417,5.201,0.625,8.301,0.625
		c2.24,0,4.146-0.176,5.723-0.527s2.865-0.872,3.867-1.562c1.002-0.689,1.732-1.529,2.188-2.52c0.455-0.989,0.684-2.122,0.684-3.398
		c0-1.38-0.385-2.559-1.152-3.535s-1.777-1.849-3.027-2.617c-1.25-0.768-2.676-1.471-4.277-2.109
		c-1.602-0.638-3.236-1.295-4.902-1.973c-1.666-0.677-3.301-1.412-4.902-2.207c-1.602-0.794-3.027-1.731-4.277-2.812
		c-1.25-1.08-2.26-2.35-3.027-3.809c-0.768-1.458-1.152-3.189-1.152-5.195c0-1.744,0.365-3.463,1.094-5.156
		c0.729-1.692,1.861-3.196,3.398-4.512c1.537-1.314,3.51-2.376,5.918-3.184c2.408-0.807,5.279-1.211,8.613-1.211
		c0.859,0,1.791,0.039,2.793,0.117s2.018,0.189,3.047,0.332c1.029,0.144,2.045,0.307,3.047,0.488
		c1.002,0.183,1.934,0.378,2.793,0.586v6.25c-2.006-0.572-4.01-1.009-6.016-1.309c-2.006-0.299-3.945-0.449-5.82-0.449
		c-3.984,0-6.914,0.664-8.789,1.992s-2.812,3.112-2.812,5.352c0,1.381,0.385,2.565,1.152,3.555c0.768,0.99,1.777,1.875,3.027,2.656
		s2.676,1.491,4.277,2.129c1.602,0.639,3.236,1.296,4.902,1.973c1.666,0.678,3.301,1.42,4.902,2.227
		c1.602,0.808,3.027,1.765,4.277,2.871c1.25,1.107,2.26,2.402,3.027,3.887S610.742,49.668,610.742,51.699z"/>
	<path d="M656.68,65.527h-8.75l-19.102-25.039v25.039h-6.953V14.473h6.953v23.711l18.711-23.711h8.242L635.625,38.73L656.68,65.527z
		"/>
	<path d="M678.242,20.332h-11.758v-5.859h30.547v5.859h-11.758V59.59h11.758v5.938h-30.547V59.59h11.758V20.332z"/>
</g>
</svg>
