<?xml version="1.0" encoding="utf-8"?>
<!-- Generator: Adobe Illustrator 15.1.0, SVG Export Plug-In . SVG Version: 6.00 Build 0)  -->
<!DOCTYPE svg PUBLIC "-//W3C//DTD SVG 1.1//EN" "http://www.w3.org/Graphics/SVG/1.1/DTD/svg11.dtd">
<svg version="1.1" id="Layer_1" xmlns="http://www.w3.org/2000/svg" xmlns:xlink="http://www.w3.org/1999/xlink" x="0px" y="0px"
	 width="1000px" height="1080px" viewBox="0 0 1000 1080" enable-background="new 0 0 1000 1080" xml:space="preserve">
<g>
	<path d="M45.527,0.791L41.66,58.228H31.509L24.39,37.793l-1.978-6.548l-2.065,7.075l-6.592,19.907h-9.8L0,0.791h7.383l2.241,39.067
		l0.659,10.723l2.769-9.097l6.943-21.313H25.4l7.998,22.852l2.681,7.559l0.176-7.91l2.285-41.88H45.527z"/>
	<path d="M94.57,29.136c0,5.157-0.608,9.609-1.824,13.359c-1.216,3.75-2.856,6.849-4.922,9.294
		c-2.065,2.446-4.482,4.263-7.251,5.449s-5.691,1.78-8.767,1.78c-3.691,0-6.907-0.667-9.646-2c-2.74-1.333-5.01-3.259-6.812-5.779
		c-1.802-2.52-3.142-5.588-4.021-9.207c-0.879-3.618-1.318-7.697-1.318-12.239c0-5.098,0.6-9.521,1.802-13.271
		c1.201-3.75,2.834-6.848,4.9-9.294c2.065-2.446,4.475-4.263,7.229-5.449C66.694,0.593,69.609,0,72.686,0
		c3.691,0,6.906,0.674,9.646,2.021c2.739,1.348,5.017,3.274,6.833,5.779c1.816,2.505,3.171,5.559,4.065,9.163
		C94.124,20.566,94.57,24.625,94.57,29.136z M86.44,29.707c0-3.369-0.257-6.453-0.769-9.25c-0.513-2.797-1.34-5.208-2.483-7.229
		s-2.615-3.588-4.417-4.702c-1.802-1.113-3.977-1.67-6.526-1.67c-2.461,0-4.578,0.593-6.35,1.78
		c-1.773,1.187-3.23,2.798-4.373,4.834c-1.143,2.037-1.993,4.424-2.549,7.163c-0.557,2.74-0.835,5.647-0.835,8.723
		c0,3.399,0.264,6.497,0.791,9.294c0.527,2.798,1.355,5.201,2.483,7.207c1.127,2.007,2.585,3.567,4.373,4.68
		c1.787,1.114,3.94,1.67,6.46,1.67c2.461,0,4.585-0.593,6.372-1.78c1.787-1.187,3.259-2.797,4.417-4.834
		c1.157-2.036,2.014-4.417,2.571-7.141C86.162,35.728,86.44,32.812,86.44,29.707z"/>
	<path d="M144.316,58.228h-7.646l-1.143-35.815l-0.483-13.755l-2.681,7.998l-8.481,22.852h-5.405l-8.086-21.973l-2.681-8.877
		l-0.176,14.37l-1.011,35.2h-7.383l2.812-57.437h9.272l7.734,21.621l2.505,7.295l2.417-7.295l8.13-21.621h9.536L144.316,58.228z"/>
	<path d="M187.954,58.228h-32.651V0.791h32.651v6.592h-24.829v17.798h23.862v6.592h-23.862v19.775h24.829V58.228z"/>
	<path d="M240.249,58.228h-10.195l-16.743-35.815l-4.834-11.514v28.96v18.369h-7.295V0.791h10.063l15.952,33.926l5.757,13.14V17.095
		V0.791h7.295V58.228z"/>
</g>
</svg>
