<?xml version="1.0" encoding="utf-8"?>
<!-- Generator: Adobe Illustrator 15.1.0, SVG Export Plug-In . SVG Version: 6.00 Build 0)  -->
<!DOCTYPE svg PUBLIC "-//W3C//DTD SVG 1.1//EN" "http://www.w3.org/Graphics/SVG/1.1/DTD/svg11.dtd">
<svg version="1.1" id="Layer_1" xmlns="http://www.w3.org/2000/svg" xmlns:xlink="http://www.w3.org/1999/xlink" x="0px" y="0px"
	 width="1000px" height="1080px" viewBox="0 0 1000 1080" enable-background="new 0 0 1000 1080" xml:space="preserve">
<rect x="61.149" y="136.672" fill="none" width="5.97" height="4.478"/>
<g>
	<path d="M40.469,0.703l-3.438,51.055h-9.023L21.68,33.594l-1.758-5.82l-1.836,6.289l-5.859,17.695H3.516L0,0.703h6.562L8.555,35.43
		l0.586,9.531l2.461-8.086l6.172-18.945h4.805l7.109,20.312l2.383,6.719l0.156-7.031l2.031-37.227H40.469z"/>
	<path d="M128.047,25.898c0,4.584-0.541,8.542-1.621,11.875c-1.081,3.334-2.539,6.088-4.375,8.262
		c-1.836,2.175-3.984,3.789-6.445,4.844s-5.059,1.582-7.793,1.582c-3.281,0-6.14-0.593-8.574-1.777
		c-2.436-1.185-4.453-2.896-6.055-5.137c-1.602-2.239-2.793-4.967-3.574-8.184c-0.781-3.216-1.172-6.842-1.172-10.879
		c0-4.531,0.533-8.463,1.602-11.797c1.067-3.333,2.52-6.087,4.355-8.262c1.836-2.174,3.978-3.789,6.426-4.844
		C103.268,0.527,105.859,0,108.594,0c3.281,0,6.139,0.6,8.574,1.797c2.435,1.198,4.459,2.91,6.074,5.137
		c1.614,2.227,2.818,4.941,3.613,8.145C127.649,18.281,128.047,21.889,128.047,25.898z M120.82,26.406
		c0-2.994-0.229-5.735-0.684-8.223c-0.456-2.486-1.191-4.629-2.207-6.426s-2.324-3.189-3.926-4.18
		c-1.602-0.989-3.535-1.484-5.801-1.484c-2.188,0-4.069,0.527-5.645,1.582c-1.576,1.055-2.871,2.487-3.887,4.297
		c-1.016,1.811-1.771,3.933-2.266,6.367c-0.495,2.436-0.742,5.02-0.742,7.754c0,3.021,0.234,5.775,0.703,8.262
		c0.469,2.487,1.204,4.623,2.207,6.406c1.002,1.784,2.298,3.171,3.887,4.16c1.588,0.99,3.502,1.484,5.742,1.484
		c2.188,0,4.075-0.527,5.664-1.582c1.588-1.055,2.896-2.486,3.926-4.297c1.028-1.81,1.79-3.926,2.285-6.348
		C120.572,31.758,120.82,29.167,120.82,26.406z"/>
	<path d="M216.25,51.758h-6.797l-1.016-31.836l-0.43-12.227l-2.383,7.109l-7.539,20.312h-4.805l-7.188-19.531l-2.383-7.891
		l-0.156,12.773l-0.898,31.289h-6.562l2.5-51.055h8.242l6.875,19.219l2.227,6.484l2.148-6.484l7.227-19.219h8.477L216.25,51.758z"/>
	<path d="M299.023,51.758H270V0.703h29.023v5.859h-22.07v15.82h21.211v5.859h-21.211V45.82h22.07V51.758z"/>
	<path d="M389.492,51.758h-9.062l-14.883-31.836L361.25,9.688V35.43v16.328h-6.484V0.703h8.945l14.18,30.156l5.117,11.68V15.195
		V0.703h6.484V51.758z"/>
</g>
</svg>
