<?xml version="1.0" encoding="UTF-8"?>
<!DOCTYPE svg PUBLIC "-//W3C//DTD SVG 1.1//EN" "http://www.w3.org/Graphics/SVG/1.1/DTD/svg11.dtd">
<!-- Creator: CorelDRAW -->
<svg xmlns="http://www.w3.org/2000/svg" xml:space="preserve" width="0.482835in" height="8.12978in" style="shape-rendering:geometricPrecision; text-rendering:geometricPrecision; image-rendering:optimizeQuality; fill-rule:evenodd; clip-rule:evenodd"
viewBox="0 0 0.104647 1.76201"
 xmlns:xlink="http://www.w3.org/1999/xlink">
 <defs>
  <style type="text/css">
   <![CDATA[
    .fil0 {fill:#1F1A17;fill-rule:nonzero}
   ]]>
  </style>
 </defs>
 <g id="Layer_x0020_1">
  <metadata id="CorelCorpID_0Corel-Layer"/>
  <path class="fil0" d="M0.0616714 0c0,0.0567948 -0.00844414,0.111447 -0.0167364,0.165121 -0.015081,0.0976119 -0.0296646,0.191999 0.00808832,0.290155 0.0637739,0.165808 0.0298181,0.276963 -0.00591926,0.393951 -0.0224466,0.07348 -0.0455989,0.149268 -0.0455989,0.242359 0,0.128851 0.0258981,0.2329 0.0517323,0.336697 0.0257352,0.103396 0.0514097,0.206549 0.0514097,0.333726l-0.0015052 0c0,-0.127011 -0.0256507,-0.230067 -0.051362,-0.333368 -0.025858,-0.103894 -0.0517801,-0.208038 -0.0517801,-0.337056 0,-0.0932959 0.0231872,-0.169201 0.0456688,-0.242795 0.0356615,-0.116737 0.0695438,-0.227654 0.0059551,-0.39298 -0.0378954,-0.0985266 -0.0232828,-0.193107 -0.00817023,-0.290919 0.00828116,-0.0535984 0.0167125,-0.108171 0.0167125,-0.164893l0.0015052 0z"/>
 </g>
</svg>
